# xmcd
#
# Track frame offsets:
# 150
# 16852
# 32592
# 48780
# 67223
# 83927
# 97039
# 109532
# 120205
# 130935
# 142633
# 150350
# 161313
# 173444
# 183610
# 195937
# 209896
# 223083
# 235661
# 245931
# 254451
#
# Disc length: 3614 seconds
#
# Revision: 0
# Processed by: cddbd v1.4PL0 Copyright (c) Steve Scherf et al.
# Submitted via: Audion 3.0.2 (http://www.panic.com/audion/)
#
DISCID=160e1c15
DTITLE=Goldfinger - IONO
DYEAR=1900
DGENRE=
TTITLE0=dzsfgh
TTITLE1=agdh
TTITLE2=adh
TTITLE3=fd
TTITLE4=afdh
TTITLE5=adh
TTITLE6=adfh
TTITLE7=syjrttyfj
TTITLE8=sfyjk
TTITLE9=rsyjk
TTITLE10=sf
TTITLE11=adh
TTITLE12=adh
TTITLE13=athj
TTITLE14=ah
TTITLE15=ateh
TTITLE16=ath
TTITLE17=ah
TTITLE18=aterhj
TTITLE19=ryajjj
TTITLE20=aryjrta
EXTD=
EXTT0=
EXTT1=
EXTT2=
EXTT3=
EXTT4=
EXTT5=
EXTT6=
EXTT7=
EXTT8=
EXTT9=
EXTT10=
EXTT11=
EXTT12=
EXTT13=
EXTT14=
EXTT15=
EXTT16=
EXTT17=
EXTT18=
EXTT19=
EXTT20=
PLAYORDER=
